<svg xmlns="http://www.w3.org/2000/svg" width="24" height="24" viewBox="0 0 24 24">
    <g fill="none" fill-rule="evenodd">
        <g fill="#FFF">
            <g>
                <g>
                    <path d="M17 9.17c-.39-.388-1.02-.388-1.41 0L12 12.71 8.46 9.17c-.39-.388-1.02-.388-1.41 0-.19.188-.296.443-.296.71 0 .267.107.522.296.71l4.24 4.24c.188.19.443.296.71.296.267 0 .522-.107.71-.296L17 10.59c.19-.188.296-.443.296-.71 0-.267-.107-.522-.296-.71z" transform="translate(-388 -112) translate(247 104) translate(16 8) translate(125)"/>
                </g>
            </g>
        </g>
    </g>
</svg>
