<svg width="298" height="400" viewBox="0 0 298 400" fill="none" xmlns="http://www.w3.org/2000/svg">
<path fill-rule="evenodd" clip-rule="evenodd" d="M55.2396 365.544C43.5454 365.544 34.065 356.063 34.065 344.369C34.065 332.675 43.5454 323.204 55.2396 323.204C66.9337 323.204 76.4141 332.675 76.4141 344.369C76.4141 356.063 66.9337 365.544 55.2396 365.544ZM242.437 33.7096C253.888 33.7096 263.163 42.9845 263.163 54.4264C263.163 65.8777 253.888 75.162 242.437 75.162C230.995 75.162 221.711 65.8777 221.711 54.4264C221.711 42.9845 230.995 33.7096 242.437 33.7096ZM212.306 185.424L114.793 163.456C96.467 159.327 83.7828 154.302 76.6842 148.371C69.5949 142.393 66.0175 131.447 66.0175 115.4C66.0175 95.7291 71.2668 83.6054 81.8307 79.0286C92.3292 74.4425 114.578 72.3783 148.437 72.8266C156.03 72.8266 170.536 73.1162 191.925 73.7046C199.715 94.2627 219.526 108.899 242.811 108.899C272.887 108.899 297.266 84.5207 297.266 54.4448C297.266 24.3783 272.887 0 242.811 0C223.402 0 206.412 10.1903 196.773 25.4711C178.606 24.425 159.524 23.7245 139.498 23.3695C91.4326 22.4822 57.6859 28.2919 38.2393 40.92C18.7367 53.4921 9.01343 78.3 9.01343 115.4C9.01343 142.842 14.7671 163.689 26.2277 177.877C37.6229 192.075 57.1255 202.349 84.5674 208.785L180.68 230.734C199.902 235.33 213.539 240.458 221.581 246.221C229.576 251.918 233.593 262.37 233.593 277.455C233.593 296.677 226.942 309.249 213.642 315.227C200.406 321.149 174.309 324.11 135.36 324.11C126.067 324.24 116.745 324.269 107.405 324.222C99.3252 303.477 79.2061 288.766 55.6217 288.766C24.9013 288.766 0 313.667 0 344.388C0 375.099 24.9013 400 55.6217 400C76.0677 400 93.8984 388.932 103.556 372.483C117.791 373.128 132.212 373.567 147.045 373.567C199.229 373.567 236.114 367.262 257.625 354.681C279.136 342.109 289.868 316.348 289.868 277.455C289.868 249.966 283.834 229.511 271.71 215.986C259.531 202.517 239.738 192.29 212.306 185.424Z" fill="#002984"/>
</svg>
