<svg xmlns="http://www.w3.org/2000/svg" xmlns:xlink="http://www.w3.org/1999/xlink" width="224" height="64" viewBox="0 0 224 64">
    <defs>
        <filter id="ozk952zfha" width="106%" height="123.2%" x="-3%" y="-9.8%" filterUnits="objectBoundingBox">
            <feOffset dy="1" in="SourceAlpha" result="shadowOffsetOuter1"/>
            <feGaussianBlur in="shadowOffsetOuter1" result="shadowBlurOuter1" stdDeviation="2"/>
            <feColorMatrix in="shadowBlurOuter1" values="0 0 0 0 0 0 0 0 0 0 0 0 0 0 0 0 0 0 0.3 0"/>
        </filter>
        <rect id="srxssc71nb" width="216" height="56" x="0" y="0" rx="2"/>
    </defs>
    <g fill="none" fill-rule="evenodd">
        <g>
            <g>
                <g transform="translate(-8 -19) translate(12 22)">
                    <use fill="#000" filter="url(#ozk952zfha)" xlink:href="#srxssc71nb"/>
                    <use fill="#FFF" xlink:href="#srxssc71nb"/>
                </g>
                <g>
                    <path fill="#3DD473" d="M0 24H40V40H0z" transform="translate(-8 -19) translate(12 22) translate(8 8)"/>
                    <path fill="#B5FE6D" d="M40 24H80V40H40z" transform="translate(-8 -19) translate(12 22) translate(8 8)"/>
                    <path fill="#FDDD36" d="M80 24H120V40H80z" transform="translate(-8 -19) translate(12 22) translate(8 8)"/>
                    <path fill="#FAA535" d="M120 24H160V40H120z" transform="translate(-8 -19) translate(12 22) translate(8 8)"/>
                    <path fill="#9F3838" d="M160 24H200V40H160z" transform="translate(-8 -19) translate(12 22) translate(8 8)"/>
                    <path fill="#1F2961" fill-rule="nonzero" d="M1.956 13V8.8c.536-.328.966-.564 1.29-.708.324-.144.646-.216.966-.216.304 0 .52.076.648.228.128.152.192.42.192.804V13h1.02V8.62c0-1.072-.528-1.608-1.584-1.608-.8 0-1.672.356-2.616 1.068L1.8 7.156H.936V13h1.02zM8.7 5.98c.208 0 .312-.104.312-.312v-.684c0-.208-.104-.312-.312-.312h-.48c-.208 0-.312.104-.312.312v.684c0 .208.104.312.312.312h.48zM8.964 13V7.156H7.956V13h1.008zm3.996.132c.912 0 1.556-.11 1.932-.33.376-.22.564-.67.564-1.35 0-.48-.106-.838-.318-1.074-.212-.236-.558-.414-1.038-.534l-1.704-.384c-.32-.072-.542-.16-.666-.264-.124-.104-.186-.296-.186-.576 0-.344.092-.556.276-.636.184-.08.572-.116 1.164-.108.264 0 1.004.02 2.22.06l.084-.744c-.704-.104-1.524-.164-2.46-.18-.84-.016-1.43.086-1.77.306-.34.22-.51.654-.51 1.302 0 .48.1.844.3 1.092.2.248.54.428 1.02.54l1.68.384c.336.08.574.17.714.27s.21.282.21.546c0 .336-.116.556-.348.66-.232.104-.688.156-1.368.156-.664.008-1.336-.008-2.016-.048l-.072.744c.712.112 1.476.168 2.292.168zM18 13v-1.992c0-.264-.02-.576-.06-.936h.792L20.76 13h1.188l-2.028-2.808c-.112-.192-.248-.348-.408-.468V9.7c.152-.096.288-.228.408-.396l1.836-2.148h-1.188L18.72 9.328h-.768c.04-.272.06-.604.06-.996V4.6H16.98V13H18zm5.88-7.02c.208 0 .312-.104.312-.312v-.684c0-.208-.104-.312-.312-.312h-.48c-.208 0-.312.104-.312.312v.684c0 .208.104.312.312.312h.48zm.264 7.02V7.156h-1.008V13h1.008zM165.08 13c.216 0 .352-.108.408-.324l.948-3.972.204-.924h.144c.024.096.056.246.096.45.04.204.072.362.096.474l.96 3.972c.016.096.062.174.138.234.076.06.162.09.258.09h.924c.216 0 .348-.096.396-.288l1.704-5.556H170.3l-1.212 4.308c-.04.12-.082.286-.126.498l-.078.378h-.156l-.108-.45c-.048-.196-.08-.338-.096-.426l-.96-3.972c-.056-.224-.184-.336-.384-.336h-.924c-.216 0-.344.108-.384.324l-.972 3.984-.216.876h-.156c-.056-.336-.12-.628-.192-.876l-1.212-4.308h-1.056l1.704 5.556c.048.192.18.288.396.288h.912zm7.8 2.472c1.192-.056 2.044-.772 2.556-2.148l2.34-6.168h-1.104l-1.524 4.356c-.104.312-.188.548-.252.708h-.168c-.032-.144-.104-.38-.216-.708l-1.548-4.356h-1.092l2.124 5.58c.048.176.168.264.36.264h.228l-.096.252c-.16.384-.37.702-.63.954s-.618.45-1.074.594l.096.672zm8.136-2.34c.912 0 1.556-.11 1.932-.33.376-.22.564-.67.564-1.35 0-.48-.106-.838-.318-1.074-.212-.236-.558-.414-1.038-.534l-1.704-.384c-.32-.072-.542-.16-.666-.264-.124-.104-.186-.296-.186-.576 0-.344.092-.556.276-.636.184-.08.572-.116 1.164-.108.264 0 1.004.02 2.22.06l.084-.744c-.704-.104-1.524-.164-2.46-.18-.84-.016-1.43.086-1.77.306-.34.22-.51.654-.51 1.302 0 .48.1.844.3 1.092.2.248.54.428 1.02.54l1.68.384c.336.08.574.17.714.27s.21.282.21.546c0 .336-.116.556-.348.66-.232.104-.688.156-1.368.156-.664.008-1.336-.008-2.016-.048l-.072.744c.712.112 1.476.168 2.292.168zm6.492.024c1.008 0 1.718-.232 2.13-.696.412-.464.618-1.256.618-2.376 0-1.12-.206-1.912-.618-2.376-.412-.464-1.122-.696-2.13-.696-1 0-1.708.232-2.124.696-.416.464-.624 1.256-.624 2.376 0 1.12.208 1.912.624 2.376.416.464 1.124.696 2.124.696zm0-.864c-.64 0-1.08-.156-1.32-.468-.24-.312-.36-.892-.36-1.74s.12-1.428.36-1.74c.24-.312.68-.468 1.32-.468s1.08.156 1.32.468c.248.312.372.892.372 1.74s-.122 1.428-.366 1.74c-.244.312-.686.468-1.326.468zm5.364.708v-1.992c0-.264-.02-.576-.06-.936h.792L195.632 13h1.188l-2.028-2.808c-.112-.192-.248-.348-.408-.468V9.7c.152-.096.288-.228.408-.396l1.836-2.148h-1.188l-1.848 2.172h-.768c.04-.272.06-.604.06-.996V4.6h-1.032V13h1.02zm5.88-7.02c.208 0 .312-.104.312-.312v-.684c0-.208-.104-.312-.312-.312h-.48c-.208 0-.312.104-.312.312v.684c0 .208.104.312.312.312h.48zm.264 7.02V7.156h-1.008V13h1.008z" transform="translate(-8 -19) translate(12 22) translate(8 8)"/>
                </g>
            </g>
        </g>
    </g>
</svg>
