<svg xmlns="http://www.w3.org/2000/svg" width="110" height="32" viewBox="0 0 110 32">
    <g fill="none" fill-rule="evenodd">
        <g>
            <g>
                <path fill="#3F51B5" d="M39.101 26.69l.383 2.437c-2.054.714-4.435 1.069-7.142 1.069-3.593 0-6.137-.818-7.634-2.457-1.497-1.64-2.245-4.47-2.245-8.49 0-4.02.748-6.843 2.245-8.469 1.497-1.625 4.055-2.44 7.676-2.44 2.739 0 4.977.33 6.717.985l-.473 2.353c-1.88-.17-3.763-.258-5.646-.258-2.51 0-4.246.557-5.218 1.668-.968 1.114-1.455 3.167-1.455 6.16 0 3.022.487 5.09 1.455 6.2.972 1.114 2.708 1.67 5.218 1.67 2.283 0 4.32-.142 6.12-.427M57.602 13.088c-.87-1.11-2.448-1.668-4.727-1.668-2.284 0-3.85.557-4.707 1.668-.856 1.114-1.284 3.181-1.284 6.203 0 3.021.428 5.088 1.284 6.202.857 1.11 2.423 1.667 4.707 1.667 2.28 0 3.857-.557 4.727-1.667.866-1.114 1.301-3.181 1.301-6.202 0-3.022-.435-5.089-1.301-6.203M52.875 8.34c3.592 0 6.122.829 7.591 2.482 1.469 1.653 2.204 4.476 2.204 8.469 0 3.992-.735 6.815-2.204 8.469-1.469 1.653-3.999 2.481-7.591 2.481-3.564 0-6.088-.828-7.57-2.481-1.484-1.654-2.225-4.477-2.225-8.47 0-3.992.741-6.815 2.224-8.468 1.483-1.653 4.007-2.482 7.57-2.482M71.354 8.855l.212 3.293c2.938-2.538 5.775-3.808 8.511-3.808 2.91 0 4.664 1.229 5.263 3.68 2.823-2.451 5.618-3.68 8.382-3.68 1.796 0 3.171.487 4.128 1.455.954.971 1.434 2.395 1.434 4.278v15.611h-3.596V15.1c-.028-1.285-.292-2.217-.79-2.802-.498-.585-1.319-.878-2.457-.878-1 0-1.963.23-2.89.686-.925.457-2.244 1.312-3.954 2.566v15.012H82.09V15.1c0-1.312-.265-2.252-.79-2.823-.53-.57-1.347-.857-2.461-.857-.999 0-1.96.23-2.886.686-.929.457-2.248 1.295-3.957 2.524v15.054h-3.638V8.855h2.997zM105.999 29.684h3.592V8.855h-3.592v20.83zM106.939 0h1.709c.74 0 1.113.372 1.113 1.114V3.55c0 .742-.372 1.114-1.113 1.114h-1.71c-.741 0-1.113-.372-1.113-1.114V1.114c0-.742.372-1.114 1.113-1.114zM3.441 29.654c-.728 0-1.319-.59-1.319-1.319 0-.728.59-1.318 1.319-1.318.728 0 1.319.59 1.319 1.318 0 .729-.59 1.32-1.319 1.32m11.66-20.671c.714 0 1.292.578 1.292 1.29 0 .714-.578 1.292-1.291 1.292s-1.291-.578-1.291-1.291.578-1.291 1.29-1.291m-1.876 9.45L7.15 17.067c-1.142-.257-1.932-.57-2.374-.94-.442-.372-.665-1.054-.665-2.053 0-1.226.327-1.98.985-2.266.654-.286 2.04-.414 4.15-.386.472 0 1.376.018 2.708.054.486 1.281 1.72 2.193 3.17 2.193 1.874 0 3.392-1.519 3.392-3.392S17 6.884 15.125 6.884c-1.209 0-2.267.635-2.868 1.587-1.131-.065-2.32-.109-3.567-.131-2.994-.055-5.097.307-6.308 1.093-1.215.783-1.82 2.329-1.82 4.64 0 1.709.358 3.008 1.072 3.891.71.885 1.925 1.525 3.634 1.926l5.987 1.367c1.197.286 2.047.606 2.548.965.498.354.748 1.006.748 1.945 0 1.198-.414 1.98-1.243 2.353-.824.369-2.45.553-4.876.553-.58.008-1.16.01-1.742.007-.503-1.292-1.756-2.208-3.225-2.208C1.55 24.872 0 26.422 0 28.336c0 1.913 1.551 3.465 3.465 3.465 1.273 0 2.384-.69 2.986-1.714.886.04 1.785.067 2.709.067 3.25 0 5.548-.393 6.888-1.176 1.34-.783 2.008-2.388 2.008-4.81 0-1.713-.376-2.987-1.13-3.83-.76-.839-1.992-1.476-3.701-1.903" transform="translate(-930 -1128) translate(930 1128)"/>
                <path fill="#00BBD3" d="M16.393 10.275c0-.713-.578-1.291-1.29-1.291-.714 0-1.292.578-1.292 1.29 0 .714.578 1.292 1.291 1.292s1.291-.578 1.291-1.291zM3.441 27.017c-.728 0-1.319.59-1.319 1.319 0 .728.59 1.318 1.319 1.318.728 0 1.319-.59 1.319-1.318 0-.729-.59-1.32-1.319-1.32" transform="translate(-930 -1128) translate(930 1128)"/>
            </g>
        </g>
    </g>
</svg>
