<svg xmlns="http://www.w3.org/2000/svg" xmlns:xlink="http://www.w3.org/1999/xlink" width="83" height="24" viewBox="0 0 83 24">
    <defs>
        <path id="txn80cim4a" d="M0 23.851L82.321 23.851 82.321 0 0 0z"/>
    </defs>
    <g fill="none" fill-rule="evenodd">
        <path fill="#FFF" d="M29.326 20.018l.287 1.827c-1.54.535-3.326.802-5.357.802-2.694 0-4.603-.613-5.725-1.843-1.123-1.23-1.684-3.352-1.684-6.368 0-3.015.561-5.132 1.684-6.35 1.122-1.22 3.041-1.83 5.757-1.83 2.054 0 3.733.247 5.038.738l-.355 1.765c-1.41-.128-2.822-.194-4.235-.194-1.882 0-3.184.418-3.913 1.25-.726.836-1.091 2.376-1.091 4.621 0 2.267.365 3.817 1.091 4.65.729.836 2.031 1.253 3.913 1.253 1.713 0 3.24-.107 4.59-.321M43.201 9.816c-.652-.833-1.835-1.25-3.545-1.25-1.713 0-2.887.417-3.53 1.25-.642.836-.963 2.386-.963 4.652s.321 3.816.963 4.652c.643.833 1.817 1.25 3.53 1.25 1.71 0 2.893-.417 3.545-1.25.65-.836.976-2.386.976-4.652s-.326-3.816-.976-4.652m-3.545-3.56c2.694 0 4.592.62 5.694 1.86 1.101 1.24 1.652 3.358 1.652 6.352s-.55 5.112-1.652 6.352c-1.102 1.24-3 1.86-5.694 1.86-2.673 0-4.566-.62-5.678-1.86-1.112-1.24-1.668-3.358-1.668-6.352s.556-5.112 1.668-6.352c1.112-1.24 3.005-1.86 5.678-1.86M53.516 6.641l.159 2.47c2.203-1.903 4.33-2.856 6.383-2.856 2.182 0 3.498.922 3.947 2.76 2.117-1.838 4.214-2.76 6.286-2.76 1.347 0 2.379.365 3.096 1.091.716.729 1.076 1.796 1.076 3.209v11.708h-2.697V11.325c-.02-.964-.22-1.663-.592-2.102-.374-.438-.99-.658-1.844-.658-.749 0-1.472.173-2.166.515s-1.684.984-2.966 1.924v11.26h-2.631v-10.94c0-.983-.199-1.688-.593-2.116-.397-.428-1.01-.643-1.846-.643-.749 0-1.47.173-2.164.515-.697.342-1.686.97-2.968 1.892v11.291h-2.728V6.641h2.248z"/>
        <mask id="sbk8d83rhb" fill="#fff">
            <use xlink:href="#txn80cim4a"/>
        </mask>
        <path fill="#FFF" d="M79.499 22.263h2.694V6.642h-2.694v15.621zM80.204 0h1.282c.556 0 .835.28.835.835v1.828c0 .556-.28.835-.835.835h-1.282c-.556 0-.836-.28-.836-.835V.835c0-.556.28-.835.836-.835zM2.58 22.24c-.546 0-.988-.442-.988-.989 0-.546.442-.988.989-.988.546 0 .989.442.989.988 0 .547-.443.99-.99.99m8.746-15.503c.535 0 .969.433.969.968 0 .535-.434.969-.969.969-.534 0-.968-.434-.968-.97 0-.534.434-.967.968-.967M9.92 13.826L5.363 12.8c-.856-.193-1.449-.428-1.78-.705-.332-.28-.499-.79-.499-1.54 0-.92.246-1.486.74-1.7.49-.214 1.529-.31 3.11-.29.356 0 1.033.014 2.032.042.364.96 1.29 1.644 2.378 1.644 1.405 0 2.544-1.14 2.544-2.544 0-1.405-1.14-2.544-2.544-2.544-.907 0-1.7.476-2.151 1.19-.849-.049-1.74-.081-2.676-.098-2.245-.041-3.822.23-4.73.82C.875 7.662.42 8.82.42 10.555c0 1.281.269 2.255.804 2.918.533.664 1.444 1.144 2.726 1.444l4.49 1.026c.898.214 1.535.454 1.91.723.374.266.562.755.562 1.46 0 .897-.31 1.485-.932 1.764-.618.277-1.837.415-3.657.415-.434.006-.87.007-1.306.005-.378-.969-1.318-1.656-2.42-1.656C1.164 18.654 0 19.817 0 21.252 0 22.687 1.163 23.85 2.6 23.85c.955 0 1.788-.517 2.24-1.285.664.03 1.338.05 2.03.05 2.439 0 4.162-.294 5.167-.882 1.005-.587 1.506-1.79 1.506-3.608 0-1.284-.282-2.24-.848-2.871-.57-.63-1.494-1.107-2.775-1.428" mask="url(#sbk8d83rhb)"/>
        <path fill="#00BBD3" d="M11.327 8.674c.535 0 .968-.433.968-.968 0-.535-.433-.968-.968-.968-.535 0-.969.433-.969.968 0 .535.434.968.969.968M2.58 20.263c-.546 0-.988.442-.988.989 0 .546.442.989.989.989.546 0 .989-.443.989-.99 0-.546-.443-.988-.99-.988" mask="url(#sbk8d83rhb)"/>
    </g>
</svg>
