<svg xmlns="http://www.w3.org/2000/svg" width="64" height="64" viewBox="0 0 64 64">
    <g fill="none" fill-rule="evenodd">
        <g fill="#3F51B5">
            <path d="M32 5.333c-11.782 0-21.333 9.552-21.333 21.334 0 14.4 18.8 30.666 19.6 31.36.998.853 2.468.853 3.466 0 .934-.694 19.6-16.96 19.6-31.36 0-11.782-9.55-21.334-21.333-21.334zM32 52.4c-5.68-5.333-16-16.827-16-25.733 0-8.837 7.163-16 16-16s16 7.163 16 16c0 8.906-10.32 20.426-16 25.733zM32 16c-5.891 0-10.667 4.776-10.667 10.667 0 5.89 4.776 10.666 10.667 10.666s10.667-4.775 10.667-10.666c0-2.83-1.124-5.542-3.125-7.543-2-2-4.713-3.124-7.542-3.124zm0 16c-2.946 0-5.333-2.388-5.333-5.333 0-2.946 2.387-5.334 5.333-5.334s5.333 2.388 5.333 5.334C37.333 29.612 34.946 32 32 32z" transform="translate(-1024 -568) translate(1024 568)"/>
        </g>
    </g>
</svg>
