<svg xmlns="http://www.w3.org/2000/svg" width="64" height="64" viewBox="0 0 64 64">
    <g fill="none" fill-rule="evenodd">
        <g fill="#3F51B5">
            <path d="M51.84 34.667c-.587 0-1.2-.187-1.787-.32-1.188-.262-2.355-.61-3.493-1.04-2.562-.932-5.414.218-6.613 2.666l-.587 1.2c-2.597-1.445-4.984-3.239-7.093-5.333-2.094-2.11-3.889-4.496-5.334-7.093l1.12-.747c2.449-1.199 3.599-4.051 2.667-6.613-.423-1.14-.77-2.308-1.04-3.494-.133-.586-.24-1.2-.32-1.813-.669-3.88-4.063-6.697-8-6.64h-8c-2.325-.022-4.545.97-6.082 2.715-1.536 1.746-2.236 4.075-1.918 6.378 2.922 22.982 21.06 41.055 44.053 43.894h1.014c1.966.003 3.865-.719 5.333-2.027 1.706-1.526 2.677-3.71 2.667-6v-8c-.068-3.82-2.827-7.059-6.587-7.733zm1.333 16c0 .766-.33 1.494-.906 2-.601.523-1.396.765-2.187.666C29.536 50.7 13.39 34.476 10.853 13.92c-.085-.79.155-1.58.667-2.187.506-.575 1.234-.905 2-.906h8c1.28-.029 2.398.855 2.667 2.106.106.73.24 1.45.4 2.16.308 1.406.718 2.787 1.226 4.134L22.08 20.96c-.645.296-1.145.836-1.39 1.502-.245.665-.215 1.401.083 2.045 3.838 8.22 10.446 14.828 18.667 18.666.65.267 1.377.267 2.027 0 .671-.24 1.219-.74 1.52-1.386l1.653-3.734c1.379.493 2.786.903 4.213 1.227.711.16 1.431.293 2.16.4 1.251.268 2.135 1.387 2.107 2.667l.053 8.32z" transform="translate(-352 -568) translate(352 568)"/>
        </g>
    </g>
</svg>
