<svg xmlns="http://www.w3.org/2000/svg" width="24" height="24" viewBox="0 0 24 24">
    <g fill="none" fill-rule="evenodd">
        <g fill="#B2B2B2">
            <g>
                <path d="M21.71 20.29L18 16.61c2.99-3.728 2.545-9.144-1.014-12.333-3.56-3.19-8.991-3.041-12.37.338-3.38 3.38-3.529 8.811-.34 12.37 3.19 3.56 8.606 4.005 12.334 1.015l3.68 3.68c.188.19.443.296.71.296.267 0 .522-.107.71-.296.375-.388.375-1.002 0-1.39zM11 18c-3.866 0-7-3.134-7-7s3.134-7 7-7 7 3.134 7 7c0 1.857-.737 3.637-2.05 4.95C14.637 17.263 12.857 18 11 18z" transform="translate(-320 -112) translate(8 104) translate(312 8)"/>
            </g>
        </g>
    </g>
</svg>
